PathFileType	4	(X/Y/Z)	C:\ABL_Data\ExoAging\Piloting\Dec 6 2019\Generated_files\static_1.trc
DataRate	CameraRate	NumFrames	NumMarkers	Units	OrigDataRate	OrigDataStartFrame	OrigNumFrames
100.00	100.00	       10	20	mm	100.00	203	       539
Frame#	Time	R.Acromium			L.Acromium			Sternum			R.ASIS			R.PSIS			S2			L.PSIS			L.ASIS			R.Knee			R.Ankle			L.Knee			L.Ankle			R.MKnee			R.MAnkle			L.MKnee			L.MAnkle			C7			T12			Clav			R.Back			
		X1	Y1	Z1	X2	Y2	Z2	X3	Y3	Z3	X4	Y4	Z4	X5	Y5	Z5	X6	Y6	Z6	X7	Y7	Z7	X8	Y8	Z8	X9	Y9	Z9	X10	Y10	Z10	X11	Y11	Z11	X12	Y12	Z12	X13	Y13	Z13	X14	Y14	Z14	X15	Y15	Z15	X16	Y16	Z16	X17	Y17	Z17	X18	Y18	Z18	X19	Y19	Z19	X20	Y20	Z20	

203	2.020	769.56403	362.45865	1491.29626	784.57202	766.59534	1483.91919				850.32361	423.95355	1006.87549	666.62329	506.54092	1042.79675	650.28265	559.15094	1019.15649	671.59454	609.22662	1046.75244	859.95343	683.73975	1018.26868	756.94116	361.88885	512.94250	693.30713	359.31369	87.55448	756.26196	740.92456	509.87347	701.43872	752.03021	79.78970	778.38019	475.56512	490.43661	739.13409	439.49487	92.80556	766.44312	628.71625	487.29019	717.18842	661.53571	93.90277	691.63922	550.61401	1555.71570	668.38385	560.43182	1185.69348	851.39093	555.05719	1457.94800	622.87860	437.73462	1394.26184	
204	2.030	769.52246	362.42068	1491.26782	784.54053	766.59839	1483.89905				850.23859	423.95685	1006.84741	666.53156	506.56229	1042.78564	650.09540	559.10107	1019.14490	672.37946	609.27148	1046.41199	859.89764	683.68951	1018.35815	756.91925	361.83685	512.96515	693.32123	359.29361	87.53645	756.23822	740.88245	509.84125	701.43866	752.01392	79.75714	778.34149	475.54803	490.42194	739.15399	439.47964	92.81088	766.41779	628.70612	487.28607	717.19434	661.55084	93.89674	691.58984	550.60400	1555.66638	668.26965	560.47076	1185.69922	851.33960	555.06622	1457.90930	622.83368	437.72086	1394.26270	
205	2.040	769.44025	362.45477	1491.26880	784.48682	766.60266	1483.87354				850.16345	423.91522	1006.85358	666.46814	506.57944	1042.77222	650.07239	559.17352	1019.13202	672.29498	609.25726	1046.39795	859.87305	683.78546	1018.37878	756.92023	361.84787	512.85583	693.31110	359.27802	87.51917	756.19360	740.97577	509.89795	701.44055	752.04266	79.79073	778.27704	475.56244	490.49326	739.14850	439.47092	92.83887	766.35468	628.69922	487.28558	717.19580	661.55304	93.90064	691.57538	550.69452	1555.65186	668.20093	560.48059	1185.71167	851.29559	555.02399	1457.84875	622.77960	437.68579	1394.29211	
206	2.050	769.44861	362.50156	1491.34167	784.43683	766.50708	1483.84094				850.11249	423.96674	1006.93396	666.42780	506.54437	1042.77710	649.98602	559.14307	1019.16968	671.42749	609.23718	1046.71899	859.82257	683.67273	1018.39862	756.84534	361.83984	512.96503	693.30493	359.26770	87.56387	756.20172	740.89587	509.87402	701.41034	752.05792	79.79196	778.24274	475.56100	490.47659	739.11584	439.46896	92.84304	766.36432	628.70929	487.30688	717.19177	661.55511	93.89876	691.52673	550.67804	1555.74243	668.13171	560.44684	1185.70959	851.26611	555.04309	1457.84802	622.71631	437.69693	1394.33704	
207	2.060	769.41345	362.48831	1491.32849	784.41083	766.55707	1483.83960				850.05463	423.90656	1006.92432	666.36566	506.58487	1042.78296	649.98248	559.14246	1019.17297	672.20532	609.28833	1046.43457	859.78918	683.64404	1018.41309	756.79559	361.82834	512.96130	693.31769	359.28625	87.53288	756.21088	740.93445	509.88855	701.41840	752.03046	79.76643	778.25726	475.54172	490.48047	739.14185	439.47525	92.81847	766.36481	628.69702	487.32645	717.16296	661.54742	93.91526	691.51721	550.70386	1555.75110	668.04901	560.48511	1185.72241	851.25366	554.98810	1457.86780	622.66736	437.68854	1394.38928	
208	2.070	769.35425	362.48114	1491.33813	784.36163	766.58191	1483.82434				849.94629	423.88028	1006.91315	666.28314	506.62338	1042.80811	649.94232	559.16528	1019.12451	672.13422	609.27692	1046.39075	859.78564	683.69025	1018.40198	756.70123	361.84186	512.94574	693.31494	359.26849	87.52903	756.16779	740.91541	509.88953	701.42993	752.05682	79.79449	778.21478	475.56000	490.48691	739.13770	439.47760	92.79600	766.33563	628.70587	487.31870	717.18573	661.56470	93.92008	691.50067	550.72577	1555.74023	668.00305	560.45154	1185.74341	851.23822	554.90985	1457.82495	622.63617	437.70007	1394.41516	
209	2.080	769.30524	362.53091	1491.32690	784.27087	766.51538	1483.83093				849.88721	423.88983	1006.92883	666.17645	506.66092	1042.80066	649.97650	559.22827	1019.07562	671.30780	609.28033	1046.75146	859.71674	683.62073	1018.47882	756.73773	361.84268	512.87708	693.29218	359.26129	87.53123	756.13873	740.95184	509.88693	701.42242	752.05731	79.76972	778.20074	475.54773	490.50082	739.13177	439.46704	92.80125	766.31934	628.69720	487.32254	717.17688	661.56049	93.89970	691.47101	550.71918	1555.74207	667.95886	560.46411	1185.73657	851.20013	554.92780	1457.79395	622.58191	437.65482	1394.43262	
210	2.090	769.29510	362.55420	1491.35278	784.23834	766.58624	1483.76746				849.82129	423.88306	1006.96759	666.15637	506.68497	1042.76843	649.95599	559.21429	1019.05280	672.02777	609.29700	1046.43274	859.70282	683.67151	1018.40363	756.66241	361.83405	512.95294	693.29468	359.27020	87.55039	756.14215	740.95251	509.83087	701.42969	752.04236	79.76606	778.16913	475.54999	490.50604	739.11145	439.45413	92.80422	766.30414	628.68616	487.29755	717.15100	661.54706	93.89555	691.43927	550.74872	1555.77808	667.84406	560.45825	1185.74365	851.16608	554.97668	1457.79333	622.53174	437.67557	1394.45715	
211	2.100	769.26239	362.50485	1491.30505	784.18365	766.56091	1483.75671				849.76813	423.81738	1006.98138	666.09271	506.64261	1042.77075	649.93933	559.20905	1019.04559	671.98242	609.30286	1046.41345	859.61591	683.66577	1018.39819	756.61688	361.88367	512.94757	693.25629	359.27771	87.51981	756.15015	740.91058	509.82022	701.40820	752.06116	79.75281	778.21729	475.51486	490.51941	739.11432	439.47827	92.82339	766.28235	628.73328	487.28833	717.12567	661.54535	93.90788	691.42657	550.73987	1555.73865	667.79547	560.49286	1185.73242	851.15613	554.88129	1457.73779	622.51141	437.67899	1394.44116	
212	2.110	769.24658	362.50479	1491.29871	784.13086	766.64221	1483.70752				849.67065	423.82101	1006.93396	665.99371	506.70819	1042.79749	649.87720	559.19409	1019.05914	671.89618	609.29333	1046.42578	859.58734	683.64893	1018.40546	756.59967	361.83838	512.93463	693.26129	359.23956	87.52729	756.07776	740.92755	509.87045	701.39014	752.06873	79.77841	778.13214	475.52411	490.50681	739.09772	439.47043	92.81863	766.23010	628.66107	487.28873	717.11334	661.55310	93.90424	691.41339	550.69373	1555.73450	667.70380	560.47736	1185.77795	851.10046	554.91119	1457.66858	622.91418	437.77609	1394.30530	
